<?xml version="1.0" encoding="UTF-8"?>
<svg id="logo_large" data-name="logo large" xmlns="http://www.w3.org/2000/svg" xmlns:xlink="http://www.w3.org/1999/xlink" viewBox="0 0 64 48">
  <defs>
    <style>
      .cls-1 {
        fill: none;
      }
    </style>
    <clipPath id="clippath">
      <rect class="cls-1" x="80" width="1200" height="630"/>
    </clipPath>
  </defs>
  <path d="M32.1,10.12c1.11,0,2-1.02,2-2.12s-.9-1.99-2-1.99-2,.89-2,1.99.9,2.12,2,2.12ZM41.95,9.34s-3.32,1.51-9.85,1.51-10.05-1.51-10.05-1.51c-.21-.08-.44.02-.52.22-.08.21.02.44.22.53,0,0,2.25,1.14,5.05,1.99,1.51.61,2.49,2.5,2.49,4.1.04,3,.94,12.3.94,12.3v-.06c0,.3.24.54.53.54s.53-.24.53-.54c0,0,.14-6.77.34-9.06h0c0-.48.93-.48.93,0h0c.2,2.3.34,9.06.34,9.06,0,.3.24.54.53.54s.53-.24.53-.54v.06s.89-9.3.94-12.3c0-1.6.98-3.48,2.49-4.1,2.8-.85,4.85-1.99,4.85-1.99.21-.08.3-.32.22-.53-.08-.21-.32-.31-.52-.22ZM40.11,31.47c-.15-.35-3.67-.63-8-.63s-7.86.28-8,.63c0,0,0,0,0,.01,0,0,0,0,0,.01,0,.25,1.77.47,4.36.58.5.13.94.29,1.26.43.31.14,1.36.51,2.4.51s2.09-.37,2.4-.51c.32-.13.76-.29,1.26-.43,2.59-.11,4.36-.33,4.36-.58,0,0,0,0,0-.01,0,0,0,0,0-.01Z"/>
  <path id="logo_type" data-name="logo type" d="M19.13,41.65c.21,0,.4,0,.58,0h.76c.13,0,.21.02.26.06.05.04.08.12.08.24v.59c0,.07.01.11.04.13.03.02.07.03.12.03h.3s0-.02-.02-.04c0-.02-.01-.05-.01-.09v-.63c0-.09-.01-.18-.04-.26-.03-.09-.11-.14-.26-.17h-.09s.05-.01.08-.02c.02,0,.04-.01.05-.03.09-.05.16-.12.21-.22.05-.1.07-.24.07-.41,0-.21-.04-.38-.13-.49-.09-.11-.23-.17-.42-.19-.05,0-.11,0-.2-.01-.09,0-.18,0-.29,0h-.34c-.12,0-.23,0-.34,0-.11,0-.21,0-.3,0s-.16,0-.22,0c-.11,0-.18.03-.23.07-.05.04-.07.11-.07.22v2.27h.43v-1.05ZM19.13,40.51c0-.06.02-.1.06-.11.04-.01.06-.02.07-.02.05,0,.13,0,.23,0,.1,0,.22,0,.34,0,.12,0,.24,0,.36,0,.11,0,.21,0,.29.02.12.01.2.06.26.15.05.08.08.2.08.34,0,.21-.05.35-.14.43-.09.08-.2.11-.33.11h-.61c-.13,0-.25,0-.36,0-.11,0-.19,0-.24,0v-.9ZM28.77,42.7h.27c.07,0,.11-.01.13-.04.02-.03.02-.07.02-.14v-2.12h1.05v-.25h-2.53v.25h1.06v2.31ZM24.3,42.45h-1.93v-.97h1.77v-.24h-1.77v-.85h1.93v-.24h-2.21c-.06,0-.1.01-.12.04-.02.03-.03.07-.03.14v2.38h2.36v-.24ZM25.17,40.53v.02s1.68,2.14,1.68,2.14h.34c.08,0,.13-.01.15-.03.02-.02.04-.08.04-.18v-2.23s0-.05,0-.08c0-.02,0-.04.01-.04h-.33v2.13h-.02s-1.66-2.13-1.66-2.13h-.37c-.08,0-.13.01-.15.04-.02.03-.02.09-.02.19v2.33h.32v-2.16ZM9.57,42.47c.11.09.26.16.45.2.19.04.42.06.7.06.14,0,.27,0,.4-.01.13,0,.26-.03.39-.05.11-.01.19-.04.22-.08.03-.04.05-.08.05-.13v-.13c-.09.03-.19.05-.31.07-.12.02-.24.04-.37.05-.13.01-.24.02-.34.02-.28,0-.5-.03-.65-.09-.16-.06-.27-.17-.33-.33-.06-.15-.09-.37-.09-.65s.03-.49.1-.65c.07-.15.18-.26.33-.32.15-.06.36-.09.62-.09.1,0,.22,0,.36.02.13.01.26.03.39.05.13.02.22.05.29.09v-.14c0-.06-.02-.1-.05-.13-.03-.03-.1-.06-.21-.08-.13-.02-.26-.04-.39-.05-.13,0-.26-.01-.4-.01-.27,0-.49.02-.68.06-.19.04-.34.1-.46.2-.12.1-.2.23-.26.4s-.08.39-.08.65.02.49.08.66c.05.17.13.3.24.4ZM15.94,41.65c.21,0,.4,0,.58,0h.76c.13,0,.21.02.26.06.05.04.08.12.08.24v.59c0,.07.01.11.04.13.03.02.07.03.12.03h.3s0-.02-.02-.04c0-.02-.01-.05-.01-.09v-.63c0-.09-.01-.18-.04-.26-.03-.09-.11-.14-.26-.17h-.09s.05-.01.08-.02c.02,0,.04-.01.05-.03.09-.05.16-.12.21-.22.05-.1.07-.24.07-.41,0-.21-.04-.38-.13-.49-.09-.11-.23-.17-.42-.19-.05,0-.11,0-.2-.01-.09,0-.18,0-.29,0h-.34c-.12,0-.23,0-.34,0-.11,0-.21,0-.3,0s-.16,0-.22,0c-.11,0-.18.03-.23.07-.05.04-.07.11-.07.22v2.27h.43v-1.05ZM15.94,40.51c0-.06.02-.1.06-.11.04-.01.06-.02.07-.02.05,0,.13,0,.23,0,.1,0,.22,0,.34,0,.12,0,.24,0,.36,0,.11,0,.21,0,.29.02.12.01.21.06.26.15.05.08.08.2.08.34,0,.21-.05.35-.14.43-.09.08-.2.11-.33.11h-.61c-.13,0-.25,0-.36,0-.11,0-.19,0-.24,0v-.9ZM12.45,42.27c.04.09.1.17.18.23.08.07.2.12.36.15.15.04.35.05.6.05.31,0,.55-.03.71-.08.17-.06.29-.13.37-.23.08-.1.12-.22.14-.35.01-.14.02-.28.02-.44v-1.24c0-.06,0-.11,0-.14,0-.03-.02-.06-.04-.07-.03-.01-.07-.02-.12-.02h-.25v1.68c0,.23-.06.39-.19.49-.13.1-.34.15-.63.15-.19,0-.34-.02-.45-.06-.12-.04-.2-.1-.26-.19-.05-.09-.08-.22-.08-.39v-1.68h-.26c-.05,0-.09,0-.12.02-.03.01-.04.03-.04.07,0,.03,0,.08,0,.14v1.27c0,.12,0,.23.01.34,0,.11.03.21.07.3ZM59.4,38.79H4.6c-.33,0-.6.27-.6.6v4.04c0,.33.27.6.6.6h54.79c.33,0,.6-.27.6-.6v-4.04c0-.33-.27-.6-.6-.6ZM32.92,39.45l-2.27,3.94c-.12.2-.3.34-.52.4H4.6c-.19,0-.35-.16-.35-.35v-4.04c0-.19.16-.35.35-.35h28.84c-.22.06-.41.2-.52.4ZM36.81,41.74c0,.18-.02.34-.07.46-.04.13-.12.23-.23.3-.11.08-.27.13-.47.17s-.45.05-.75.05c-.28,0-.52-.02-.72-.06-.19-.04-.35-.11-.48-.2s-.21-.23-.27-.4c-.06-.17-.08-.38-.08-.64,0-.29.04-.52.11-.69.07-.17.18-.31.32-.4.14-.09.3-.15.5-.18.19-.03.41-.05.65-.05s.45,0,.64.01c.19,0,.34.02.45.05.09.01.16.04.2.07.04.03.07.07.08.11s.02.08.02.12v.18s-.07-.05-.15-.07c-.08-.02-.17-.03-.28-.04-.1-.01-.21-.02-.32-.03-.11,0-.21-.01-.3-.02-.09,0-.17,0-.22,0-.23,0-.41.03-.55.08-.14.05-.23.14-.29.28-.06.13-.09.33-.09.58,0,.24.03.42.08.55.05.13.14.22.26.28.12.05.28.08.48.08.19,0,.33-.02.44-.05.11-.03.19-.09.23-.18.05-.09.07-.2.08-.35v-.17h-.99c0-.1,0-.18.02-.24.01-.06.04-.1.09-.12.05-.02.13-.04.24-.04h1.35v.55ZM39.89,42.7c-.08,0-.15-.01-.19-.04-.04-.03-.07-.08-.07-.17v-.44c0-.12-.03-.19-.08-.23-.05-.04-.14-.05-.26-.05h-.18c-.17,0-.32,0-.45,0-.13,0-.28,0-.43,0v.92h-.74v-2.24c0-.11.02-.19.07-.24.05-.05.14-.08.27-.08.06,0,.14,0,.24,0,.11,0,.22,0,.36,0s.27,0,.41,0c.14,0,.28,0,.41,0,.13,0,.24,0,.34,0,.1,0,.17,0,.22,0,.2.02.34.08.44.19.1.11.15.27.15.49,0,.19-.02.34-.06.44-.04.1-.09.17-.17.22-.02.01-.05.03-.09.04-.04.01-.08.02-.13.02v.02h.14c.14.03.23.08.26.16.03.08.04.17.04.26v.55c0,.06,0,.1.02.13.01.03.02.05.02.05h-.55ZM43.12,42.7l-.24-.62h-1.24l-.22.62h-.57l.84-2.15c.05-.14.13-.24.23-.32.1-.08.26-.11.48-.11.19,0,.33.04.44.11.11.07.19.18.25.33l.85,2.15h-.81ZM45.68,42.7h-.51c-.16,0-.28-.03-.36-.09-.08-.06-.15-.17-.21-.32l-.84-2.15h.81l.61,1.75c.02.07.05.11.08.14.04.03.07.04.11.04h.06l.7-1.93h.56l-1.01,2.56ZM48.02,42.7h-.74v-2.31c0-.06,0-.1.01-.14s.03-.06.06-.08c.04-.02.09-.03.18-.03h.49v2.56ZM51.43,40.53h-1.07v1.9c0,.1-.02.17-.05.21-.03.04-.1.05-.21.05h-.5v-2.16h-1.07v-.4h2.89v.4ZM54.6,40.29l-1.01,1.38v.75c0,.08,0,.14-.02.18-.02.04-.05.07-.1.08-.05.01-.12.02-.21.02h-.41v-1.03l-1.04-1.39-.11-.14h1.02l.69,1.03.66-1.03h.67l-.14.16ZM39.36,40.54c-.06,0-.14-.01-.24-.01-.1,0-.2,0-.3,0s-.2,0-.29,0c-.09,0-.15,0-.2,0,0,0-.03,0-.06.02-.03.01-.05.04-.05.09v.76s.11,0,.21,0c.1,0,.2,0,.31,0,.11,0,.21,0,.31,0h.2c.1,0,.19-.03.27-.1.08-.06.12-.18.12-.36,0-.12-.02-.22-.07-.29-.05-.07-.12-.11-.21-.12ZM42.37,40.78s-.06-.05-.11-.05c-.06,0-.11.02-.13.05-.02.03-.04.07-.05.1l-.32.9h.98l-.32-.9s-.03-.07-.05-.1Z"/>
</svg>